# xmcd
#
# Track frame offsets:
#	175
#	25397
#	49380
#	72905
#	95472
#	115325
#	140697
#	166677
#	194392
#	218657
#	247440
#	272570
#
# Disc length: 3927 seconds
#
# Revision: 0
# Processed by: cddbd v1.5.2PL0 Copyright (c) Steve Scherf et al.
# Submitted via: dBpowerAMP V4.0
#
DISCID=b70f550c
DTITLE=Niche - Éxitos del grupo niche Vol.I
DYEAR=1992
DGENRE=Salsa
TTITLE0=Cali pachanguero
TTITLE1=Un caso social
TTITLE2=Las mujeres estan de moda
TTITLE3=Digo yo
TTITLE4=Me sabe a Perú
TTITLE5=Entrega
TTITLE6=Nuestro sueño
TTITLE7=Corazón sin corazón
TTITLE8=Miserable
TTITLE9=Ese día
TTITLE10=Anamile
TTITLE11=Sin sentimiento
EXTD=
EXTT0=
EXTT1=
EXTT2=
EXTT3=
EXTT4=
EXTT5=
EXTT6=
EXTT7=
EXTT8=
EXTT9=
EXTT10=
EXTT11=
PLAYORDER=
